# xmcd
#
# Track frame offsets:
#	150
#	18180
#	33220
#	48542
#	62712
#	81175
#	120447
#	131785
#	147572
#	216170
#
# Disc length: 3265 seconds
#
# Revision: 1
# Processed by: cddbd v1.5.1PL2 Copyright (c) Steve Scherf et al.
# Submitted via: EasyCDDAExtractor 9.0.0.1
#
DISCID=8c0cbf0a
DTITLE=Kiss - Cobo Hall Detroit 26-01-76
DYEAR=1976
DGENRE=Hard Rock
TTITLE0=Deuce
TTITLE1=Strutter
TTITLE2=C'mon And Love Me
TTITLE3=Hotter Than Hell
TTITLE4=Firehouse
TTITLE5=She - Ace Solo
TTITLE6=Ladies In Waiting
TTITLE7=Nothin' To Loose
TTITLE8=Gene Solo - 100 000 Years
TTITLE9=Black Diamond
EXTD=
EXTT0=
EXTT1=
EXTT2=
EXTT3=
EXTT4=
EXTT5=
EXTT6=
EXTT7=
EXTT8=
EXTT9=
PLAYORDER=
